<svg width="131" height="131" viewBox="0 0 131 131" fill="none" xmlns="http://www.w3.org/2000/svg">
<rect x="8" y="8" width="115" height="115" fill="#1C1225"/>
<rect x="8" y="8" width="115" height="115" stroke="#8F54BE" stroke-width="4"/>
<path d="M25.6273 92V55.88H33.9573V61.2H34.4473C35.0073 59.52 35.8007 58.0733 36.8273 56.86C37.9007 55.6467 39.394 55.04 41.3073 55.04C44.8073 55.04 46.954 57.0933 47.7473 61.2H48.1673C48.4473 60.36 48.7973 59.5667 49.2173 58.82C49.6373 58.0733 50.1507 57.42 50.7573 56.86C51.364 56.3 52.0873 55.8567 52.9273 55.53C53.7673 55.2033 54.7473 55.04 55.8673 55.04C60.9073 55.04 63.4273 58.75 63.4273 66.17V92H55.0973V67.22C55.0973 65.54 54.794 64.3733 54.1873 63.72C53.6273 63.02 52.8807 62.67 51.9473 62.67C51.0607 62.67 50.2907 62.9733 49.6373 63.58C49.0307 64.14 48.7273 65.0267 48.7273 66.24V92H40.3273V67.22C40.3273 65.54 40.0473 64.3733 39.4873 63.72C38.974 63.02 38.2507 62.67 37.3173 62.67C36.384 62.67 35.5907 62.9733 34.9373 63.58C34.284 64.14 33.9573 65.0267 33.9573 66.24V92H25.6273ZM70.26 83.95H81.32V48.25H70.26V40.2H91.68V83.95H102.74V92H70.26V83.95Z" fill="#F0D9F3"/>
<path d="M2 117H14V129H2V117Z" fill="#F0D9F3" stroke="#8F54BE" stroke-width="4"/>
<path d="M117 117H129V129H117V117Z" fill="#F0D9F3" stroke="#8F54BE" stroke-width="4"/>
<path d="M117 14V2H129V14H117Z" fill="#F0D9F3" stroke="#8F54BE" stroke-width="4"/>
<path d="M2 2H14V14H2V2Z" fill="#F0D9F3" stroke="#8F54BE" stroke-width="4"/>
</svg>
