<?xml version="1.0" standalone="no"?>
<!DOCTYPE svg PUBLIC "-//W3C//DTD SVG 20010904//EN"
 "http://www.w3.org/TR/2001/REC-SVG-20010904/DTD/svg10.dtd">
<svg version="1.0" xmlns="http://www.w3.org/2000/svg"
 width="700.000000pt" height="700.000000pt" viewBox="0 0 700.000000 700.000000"
 preserveAspectRatio="xMidYMid meet">
<metadata>
Created by potrace 1.14, written by Peter Selinger 2001-2017
</metadata>
<g transform="translate(0.000000,700.000000) scale(0.100000,-0.100000)"
fill="#000000" stroke="none">
<path d="M0 6570 l0 -430 160 0 160 0 0 -2640 0 -2640 -160 0 -160 0 0 -430 0
-430 430 0 430 0 0 160 0 160 2640 0 2640 0 0 -160 0 -160 430 0 430 0 0 430
0 430 -160 0 -160 0 0 2640 0 2640 160 0 160 0 0 430 0 430 -430 0 -430 0 0
-160 0 -160 -2640 0 -2640 0 0 160 0 160 -430 0 -430 0 0 -430z m640 0 l0
-210 -210 0 -210 0 0 210 0 210 210 0 210 0 0 -210z m6140 0 l0 -210 -210 0
-210 0 0 210 0 210 210 0 210 0 0 -210z m-1880 -2890 l0 -1170 295 0 295 0 0
-210 0 -210 -865 0 -865 0 0 210 0 210 295 0 295 0 -2 958 -3 957 -292 3 -293
2 0 210 0 210 570 0 570 0 0 -1170z m-2568 354 c91 -29 171 -126 201 -245 8
-30 20 -55 28 -57 9 -1 27 26 48 73 63 142 171 227 308 244 229 28 379 -76
438 -304 29 -114 35 -274 35 -962 l0 -693 -220 0 -219 0 -3 708 -3 707 -25 50
c-36 72 -79 98 -155 93 -69 -4 -115 -30 -143 -81 -16 -29 -17 -91 -20 -754
l-3 -723 -219 0 -219 0 -3 713 -3 712 -23 47 c-30 61 -73 88 -141 88 -29 0
-64 -6 -79 -14 -41 -21 -81 -68 -92 -107 -6 -21 -10 -307 -10 -736 l0 -703
-220 0 -220 0 0 960 0 960 220 0 220 0 0 -140 c0 -127 2 -140 18 -140 12 0 23
15 34 48 21 57 88 163 126 199 82 76 213 98 344 57z m-1692 -3604 l0 -210
-210 0 -210 0 0 210 0 210 210 0 210 0 0 -210z m6140 0 l0 -210 -210 0 -210 0
0 210 0 210 210 0 210 0 0 -210z"/>
</g>
</svg>
