<svg width="43" xmlns="http://www.w3.org/2000/svg" height="32" viewBox="1411 -1637.373 43 32" fill="none"><path d="M1447.425,-1634.693C1444.600,-1635.963,1441.617,-1636.864,1438.554,-1637.373C1438.135,-1636.637,1437.755,-1635.880,1437.417,-1635.105C1434.154,-1635.587,1430.836,-1635.587,1427.572,-1635.105C1427.234,-1635.880,1426.855,-1636.637,1426.436,-1637.373C1423.370,-1636.859,1420.386,-1635.956,1417.558,-1634.686C1411.944,-1626.530,1410.422,-1618.577,1411.183,-1610.736L1411.183,-1610.736C1414.470,-1608.351,1418.151,-1606.537,1422.063,-1605.373C1422.944,-1606.536,1423.723,-1607.770,1424.393,-1609.062C1423.121,-1609.529,1421.893,-1610.104,1420.723,-1610.782C1421.031,-1611.002,1421.332,-1611.227,1421.623,-1611.447C1428.512,-1608.265,1436.487,-1608.265,1443.377,-1611.447C1443.671,-1611.211,1443.972,-1610.985,1444.276,-1610.782C1443.105,-1610.103,1441.875,-1609.527,1440.600,-1609.059C1441.269,-1607.768,1442.049,-1606.534,1442.930,-1605.373C1446.846,-1606.532,1450.529,-1608.345,1453.817,-1610.733L1453.817,-1610.733C1454.710,-1619.825,1452.292,-1627.706,1447.425,-1634.693ZZM1425.357,-1615.558C1423.236,-1615.558,1421.484,-1617.447,1421.484,-1619.772C1421.484,-1622.097,1423.175,-1624.003,1425.350,-1624.003C1427.525,-1624.003,1429.263,-1622.097,1429.226,-1619.772C1429.189,-1617.447,1427.518,-1615.558,1425.357,-1615.558ZZM1439.643,-1615.558C1437.519,-1615.558,1435.774,-1617.447,1435.774,-1619.772C1435.774,-1622.097,1437.465,-1624.003,1439.643,-1624.003C1441.821,-1624.003,1443.546,-1622.097,1443.509,-1619.772C1443.471,-1617.447,1441.804,-1615.558,1439.643,-1615.558ZZ" style="fill: rgb(0, 0, 0); fill-opacity: 1;" class="fills"/></svg>