<svg width="32.542" xmlns="http://www.w3.org/2000/svg" height="32" viewBox="1157.997 -1637.373 32.542 32" fill="none"><path d="M1174.281,-1637.373C1165.276,-1637.373,1157.997,-1630.039,1157.997,-1620.967C1157.997,-1613.715,1162.661,-1607.576,1169.132,-1605.404C1169.941,-1605.240,1170.237,-1605.757,1170.237,-1606.191C1170.237,-1606.571,1170.210,-1607.875,1170.210,-1609.233C1165.680,-1608.255,1164.737,-1611.189,1164.737,-1611.189C1164.009,-1613.090,1162.930,-1613.579,1162.930,-1613.579C1161.448,-1614.584,1163.038,-1614.584,1163.038,-1614.584C1164.683,-1614.475,1165.546,-1612.900,1165.546,-1612.900C1167.002,-1610.401,1169.347,-1611.107,1170.291,-1611.542C1170.426,-1612.601,1170.857,-1613.335,1171.316,-1613.742C1167.703,-1614.122,1163.901,-1615.535,1163.901,-1621.836C1163.901,-1623.629,1164.548,-1625.096,1165.573,-1626.236C1165.411,-1626.644,1164.845,-1628.328,1165.735,-1630.582C1165.735,-1630.582,1167.110,-1631.017,1170.210,-1628.898C1171.537,-1629.257,1172.906,-1629.440,1174.281,-1629.442C1175.656,-1629.442,1177.058,-1629.251,1178.352,-1628.898C1181.453,-1631.017,1182.828,-1630.582,1182.828,-1630.582C1183.718,-1628.328,1183.151,-1626.644,1182.990,-1626.236C1184.041,-1625.096,1184.661,-1623.629,1184.661,-1621.836C1184.661,-1615.535,1180.860,-1614.150,1177.220,-1613.742C1177.813,-1613.226,1178.325,-1612.248,1178.325,-1610.700C1178.325,-1608.500,1178.299,-1606.734,1178.299,-1606.191C1178.299,-1605.757,1178.595,-1605.240,1179.404,-1605.403C1185.875,-1607.577,1190.539,-1613.715,1190.539,-1620.967C1190.566,-1630.039,1183.259,-1637.373,1174.281,-1637.373ZZ" fill-rule="evenodd" clip-rule="evenodd" style="fill: rgb(0, 0, 0); fill-opacity: 1;" class="fills"/></svg>