<svg width="39.88" xmlns="http://www.w3.org/2000/svg" height="32" viewBox="1348.898 -1637.373 39.88 32" fill="none"><path d="M1364.842,-1605.374C1359.037,-1605.374,1354.315,-1607.970,1351.548,-1612.684C1349.098,-1616.817,1348.898,-1621.292,1348.898,-1626.293C1348.898,-1629.258,1349.790,-1631.840,1351.476,-1633.759C1353.026,-1635.522,1355.222,-1636.665,1357.660,-1636.976C1360.555,-1637.342,1364.154,-1637.373,1367.895,-1637.373C1373.983,-1637.373,1375.703,-1637.298,1378.099,-1637.059C1381.286,-1636.742,1383.967,-1635.553,1385.852,-1633.619C1387.766,-1631.654,1388.778,-1629.030,1388.778,-1626.029L1388.778,-1625.426C1388.778,-1620.304,1385.354,-1616.017,1380.582,-1614.852C1380.225,-1614.011,1379.784,-1613.175,1379.262,-1612.351L1379.248,-1612.330C1377.567,-1609.732,1373.616,-1605.373,1366.047,-1605.373L1364.842,-1605.374ZL1364.842,-1605.374ZM1376.454,-1623.654C1376.454,-1623.202,1376.794,-1622.862,1377.397,-1622.862C1379.320,-1622.862,1380.375,-1623.956,1380.375,-1625.765C1380.375,-1627.574,1379.320,-1628.706,1377.397,-1628.706C1376.794,-1628.706,1376.454,-1628.367,1376.454,-1627.914L1376.454,-1623.654ZL1376.454,-1623.654ZM1354.246,-1626.256C1354.246,-1629.423,1355.491,-1631.194,1358.620,-1631.647C1360.844,-1631.987,1363.785,-1632.024,1367.894,-1632.024C1374.002,-1632.024,1375.284,-1631.949,1377.433,-1631.761C1381.241,-1631.309,1383.428,-1629.461,1383.428,-1625.955L1383.428,-1625.390C1383.428,-1622.260,1380.826,-1619.810,1377.810,-1619.810L1376.453,-1619.810L1376.226,-1618.867C1375.925,-1617.396,1375.360,-1616.228,1374.719,-1615.172C1373.399,-1613.099,1371.024,-1610.723,1366.122,-1610.723L1364.954,-1610.723C1361.221,-1610.723,1357.941,-1612.005,1356.132,-1615.361C1354.548,-1618.264,1354.247,-1621.393,1354.246,-1626.256ZM1351.418,-1626.293C1351.418,-1621.204,1351.682,-1617.395,1353.718,-1613.965C1356.018,-1610.044,1359.863,-1607.895,1364.840,-1607.895L1366.047,-1607.895C1372.154,-1607.895,1375.472,-1611.138,1377.131,-1613.701C1377.848,-1614.833,1378.375,-1615.963,1378.714,-1617.095C1383.050,-1617.471,1386.255,-1621.053,1386.255,-1625.426L1386.255,-1626.030C1386.255,-1630.743,1383.164,-1634.023,1377.848,-1634.550C1375.585,-1634.776,1374.002,-1634.852,1367.895,-1634.852C1363.975,-1634.852,1360.657,-1634.814,1357.980,-1634.475C1354.436,-1634.022,1351.419,-1631.308,1351.418,-1626.293ZM1357.942,-1623.880C1357.942,-1621.656,1359.186,-1619.733,1360.770,-1618.224C1361.826,-1617.206,1363.485,-1616.150,1364.615,-1615.472C1364.955,-1615.283,1365.294,-1615.170,1365.671,-1615.170C1366.124,-1615.170,1366.500,-1615.283,1366.803,-1615.472C1367.934,-1616.150,1369.592,-1617.206,1370.610,-1618.224C1372.231,-1619.732,1373.475,-1621.655,1373.475,-1623.880C1373.475,-1626.293,1371.666,-1628.442,1369.065,-1628.442C1367.519,-1628.442,1366.463,-1627.650,1365.671,-1626.557C1364.955,-1627.651,1363.862,-1628.442,1362.315,-1628.442C1359.676,-1628.442,1357.941,-1626.293,1357.942,-1623.880Z" style="fill: rgb(0, 0, 0); fill-opacity: 1;" class="fills"/></svg>