<svg width="32" xmlns="http://www.w3.org/2000/svg" height="32" viewBox="1284.898 -1637.373 32 32" fill="none"><path d="M1313.088,-1637.373L1288.708,-1637.373C1286.605,-1637.373,1284.898,-1635.666,1284.898,-1633.563L1284.898,-1609.182C1284.898,-1607.079,1286.605,-1605.373,1288.708,-1605.373L1313.088,-1605.373C1315.191,-1605.373,1316.898,-1607.079,1316.898,-1609.182L1316.898,-1633.563C1316.898,-1635.666,1315.191,-1637.373,1313.088,-1637.373ZL1313.088,-1637.373ZM1294.803,-1625.182L1294.803,-1610.706L1290.231,-1610.706L1290.231,-1625.182L1294.803,-1625.182ZL1294.803,-1625.182ZM1311.565,-1610.706L1306.993,-1610.706C1306.993,-1610.706,1306.993,-1617.761,1306.993,-1618.325C1306.993,-1619.849,1306.231,-1621.373,1304.327,-1621.403L1304.266,-1621.403C1302.422,-1621.403,1301.660,-1619.834,1301.660,-1618.325C1301.660,-1617.632,1301.660,-1610.706,1301.660,-1610.706L1297.088,-1610.706L1297.088,-1625.182L1301.660,-1625.182L1301.660,-1623.232C1301.660,-1623.232,1303.130,-1625.182,1306.087,-1625.182C1309.111,-1625.182,1311.565,-1623.102,1311.565,-1618.889L1311.565,-1610.706ZL1311.565,-1610.706ZM1290.231,-1629.781C1290.231,-1631.061,1291.146,-1632.039,1292.517,-1632.039C1293.888,-1632.039,1294.749,-1631.061,1294.803,-1629.781C1294.803,-1628.501,1293.949,-1627.468,1292.517,-1627.468C1291.146,-1627.468,1290.231,-1628.501,1290.231,-1629.781ZL1290.231,-1629.781Z" style="fill: rgb(0, 0, 0); fill-opacity: 1;" class="fills"/></svg>