<svg width="30.359" xmlns="http://www.w3.org/2000/svg" height="32" viewBox="1222.539 -1637.373 30.359 32" fill="none"><path d="M1252.775,-1630.288C1252.308,-1633.726,1249.278,-1636.436,1245.687,-1636.961C1245.081,-1637.050,1242.786,-1637.373,1237.468,-1637.373L1237.429,-1637.373C1232.110,-1637.373,1230.968,-1637.050,1230.362,-1636.961C1226.871,-1636.451,1223.683,-1634.016,1222.910,-1630.537C1222.538,-1628.824,1222.498,-1626.924,1222.567,-1625.182C1222.665,-1622.683,1222.685,-1620.189,1222.914,-1617.700C1223.073,-1616.047,1223.349,-1614.407,1223.742,-1612.793C1224.477,-1609.811,1227.454,-1607.330,1230.370,-1606.318C1233.492,-1605.262,1236.850,-1605.087,1240.067,-1605.812C1240.421,-1605.893,1240.771,-1605.988,1241.117,-1606.095C1241.898,-1606.341,1242.814,-1606.616,1243.487,-1607.099C1243.497,-1607.106,1243.504,-1607.114,1243.510,-1607.124C1243.515,-1607.135,1243.518,-1607.146,1243.518,-1607.157L1243.518,-1609.568C1243.518,-1609.579,1243.516,-1609.590,1243.511,-1609.599C1243.506,-1609.609,1243.499,-1609.617,1243.491,-1609.623C1243.482,-1609.630,1243.472,-1609.635,1243.462,-1609.637C1243.451,-1609.639,1243.440,-1609.639,1243.430,-1609.637C1241.369,-1609.150,1239.257,-1608.906,1237.137,-1608.910C1233.490,-1608.910,1232.510,-1610.621,1232.229,-1611.334C1232.003,-1611.950,1231.859,-1612.593,1231.802,-1613.245C1231.802,-1613.256,1231.804,-1613.267,1231.808,-1613.277C1231.813,-1613.287,1231.819,-1613.296,1231.828,-1613.303C1231.837,-1613.310,1231.847,-1613.315,1231.858,-1613.317C1231.868,-1613.320,1231.880,-1613.319,1231.890,-1613.317C1233.917,-1612.833,1235.995,-1612.589,1238.080,-1612.589C1238.582,-1612.589,1239.081,-1612.589,1239.583,-1612.602C1241.680,-1612.661,1243.890,-1612.767,1245.953,-1613.165C1246.005,-1613.175,1246.056,-1613.184,1246.101,-1613.197C1249.355,-1613.815,1252.452,-1615.756,1252.767,-1620.669C1252.778,-1620.862,1252.808,-1622.695,1252.808,-1622.895C1252.809,-1623.577,1253.030,-1627.734,1252.775,-1630.288ZZM1247.767,-1618.029L1244.345,-1618.029L1244.345,-1626.319C1244.345,-1628.064,1243.609,-1628.954,1242.114,-1628.954C1240.470,-1628.954,1239.646,-1627.901,1239.646,-1625.822L1239.646,-1621.284L1236.245,-1621.284L1236.245,-1625.822C1236.245,-1627.901,1235.420,-1628.954,1233.776,-1628.954C1232.289,-1628.954,1231.546,-1628.064,1231.545,-1626.319L1231.545,-1618.029L1228.126,-1618.029L1228.126,-1626.571C1228.126,-1628.316,1228.576,-1629.703,1229.477,-1630.730C1230.407,-1631.756,1231.626,-1632.282,1233.139,-1632.282C1234.890,-1632.282,1236.214,-1631.616,1237.096,-1630.285L1237.948,-1628.872L1238.801,-1630.285C1239.683,-1631.616,1241.006,-1632.282,1242.755,-1632.282C1244.267,-1632.282,1245.486,-1631.756,1246.418,-1630.730C1247.319,-1629.704,1247.770,-1628.317,1247.770,-1626.571L1247.767,-1618.029ZZ" fill="inherit" style="fill: rgb(0, 0, 0); fill-opacity: 1;" class="fills"/></svg>