<svg width="464" height="130" viewBox="0 0 464 130" fill="none" xmlns="http://www.w3.org/2000/svg">
<rect x="7" y="7" width="450" height="115" fill="#1C1225"/>
<rect x="7" y="7" width="450" height="115" stroke="#8F54BE" stroke-width="4"/>
<path d="M24.2367 91V54.88H32.5667V60.2H33.0567C33.6167 58.52 34.4101 57.0733 35.4367 55.86C36.5101 54.6467 38.0034 54.04 39.9167 54.04C43.4167 54.04 45.5634 56.0933 46.3567 60.2H46.7767C47.0567 59.36 47.4067 58.5667 47.8267 57.82C48.2467 57.0733 48.7601 56.42 49.3667 55.86C49.9734 55.3 50.6967 54.8567 51.5367 54.53C52.3767 54.2033 53.3567 54.04 54.4767 54.04C59.5167 54.04 62.0367 57.75 62.0367 65.17V91H53.7067V66.22C53.7067 64.54 53.4034 63.3733 52.7967 62.72C52.2367 62.02 51.4901 61.67 50.5567 61.67C49.6701 61.67 48.9001 61.9733 48.2467 62.58C47.6401 63.14 47.3367 64.0267 47.3367 65.24V91H38.9367V66.22C38.9367 64.54 38.6567 63.3733 38.0967 62.72C37.5834 62.02 36.8601 61.67 35.9267 61.67C34.9934 61.67 34.2001 61.9733 33.5467 62.58C32.8934 63.14 32.5667 64.0267 32.5667 65.24V91H24.2367ZM85.1094 91.84C82.3094 91.84 79.7894 91.42 77.5494 90.58C75.3094 89.6933 73.396 88.4333 71.8094 86.8C70.2694 85.1667 69.0794 83.1833 68.2394 80.85C67.3994 78.5167 66.9794 75.88 66.9794 72.94C66.9794 70 67.3994 67.3633 68.2394 65.03C69.0794 62.6967 70.2694 60.7133 71.8094 59.08C73.396 57.4467 75.3094 56.21 77.5494 55.37C79.7894 54.4833 82.3094 54.04 85.1094 54.04C87.9094 54.04 90.4294 54.4833 92.6694 55.37C94.9094 56.21 96.7994 57.4467 98.3394 59.08C99.926 60.7133 101.139 62.6967 101.979 65.03C102.819 67.3633 103.239 70 103.239 72.94C103.239 75.88 102.819 78.5167 101.979 80.85C101.139 83.1833 99.926 85.1667 98.3394 86.8C96.7994 88.4333 94.9094 89.6933 92.6694 90.58C90.4294 91.42 87.9094 91.84 85.1094 91.84ZM85.1094 84.14C87.4427 84.14 89.2627 83.4167 90.5694 81.97C91.876 80.5233 92.5294 78.47 92.5294 75.81V70.07C92.5294 67.41 91.876 65.3567 90.5694 63.91C89.2627 62.4633 87.4427 61.74 85.1094 61.74C82.776 61.74 80.956 62.4633 79.6494 63.91C78.3427 65.3567 77.6894 67.41 77.6894 70.07V75.81C77.6894 78.47 78.3427 80.5233 79.6494 81.97C80.956 83.4167 82.776 84.14 85.1094 84.14ZM111.262 82.95H119.592V62.93H111.262V54.88H129.952V65.1H130.442C130.769 63.7933 131.212 62.5333 131.772 61.32C132.379 60.06 133.125 58.9633 134.012 58.03C134.945 57.05 136.065 56.28 137.372 55.72C138.679 55.16 140.219 54.88 141.992 54.88H145.422V64.4H137.722C135.155 64.4 133.219 65.17 131.912 66.71C130.605 68.2033 129.952 70.0467 129.952 72.24V82.95H141.852V91H111.262V82.95ZM188.865 94.64C188.865 98.4667 187.255 101.29 184.035 103.11C180.815 104.93 175.751 105.84 168.845 105.84C165.391 105.84 162.545 105.63 160.305 105.21C158.065 104.837 156.268 104.277 154.915 103.53C153.608 102.783 152.675 101.897 152.115 100.87C151.601 99.8433 151.345 98.7233 151.345 97.51C151.345 95.4567 151.951 93.8933 153.165 92.82C154.378 91.7933 156.081 91 158.275 90.44V90.02C156.735 89.5533 155.498 88.9 154.565 88.06C153.678 87.1733 153.235 85.9367 153.235 84.35C153.235 82.5767 153.818 81.27 154.985 80.43C156.198 79.59 157.785 78.9367 159.745 78.47V78.05C157.598 77.0233 155.918 75.5767 154.705 73.71C153.538 71.8433 152.955 69.58 152.955 66.92C152.955 64.82 153.328 62.9767 154.075 61.39C154.821 59.7567 155.871 58.4033 157.225 57.33C158.625 56.2567 160.281 55.44 162.195 54.88C164.108 54.32 166.255 54.04 168.635 54.04C170.921 54.04 173.045 54.2967 175.005 54.81V52.85C175.005 51.45 175.495 50.2833 176.475 49.35C177.455 48.4167 178.808 47.95 180.535 47.95H186.905V55.51H178.225V56.14C180.185 57.1667 181.701 58.59 182.775 60.41C183.895 62.1833 184.455 64.3533 184.455 66.92C184.455 69.02 184.081 70.8633 183.335 72.45C182.588 74.0367 181.515 75.39 180.115 76.51C178.715 77.5833 177.035 78.4 175.075 78.96C173.161 79.52 171.015 79.8 168.635 79.8C167.561 79.8 166.535 79.7533 165.555 79.66C164.575 79.52 163.641 79.3333 162.755 79.1C162.241 79.38 161.798 79.73 161.425 80.15C161.098 80.57 160.935 81.1067 160.935 81.76C160.935 82.32 161.075 82.7633 161.355 83.09C161.635 83.4167 162.008 83.6733 162.475 83.86C162.988 84 163.571 84.0933 164.225 84.14C164.878 84.1867 165.555 84.21 166.255 84.21H174.515C177.081 84.21 179.275 84.4667 181.095 84.98C182.915 85.4933 184.408 86.2167 185.575 87.15C186.741 88.0833 187.581 89.18 188.095 90.44C188.608 91.7 188.865 93.1 188.865 94.64ZM179.065 95.41C179.065 94.4767 178.691 93.73 177.945 93.17C177.198 92.6567 175.775 92.4 173.675 92.4H161.285C160.351 93.1933 159.885 94.1733 159.885 95.34C159.885 96.46 160.351 97.37 161.285 98.07C162.265 98.8167 163.898 99.19 166.185 99.19H172.275C174.655 99.19 176.381 98.8633 177.455 98.21C178.528 97.5567 179.065 96.6233 179.065 95.41ZM168.635 73.22C170.735 73.22 172.251 72.7067 173.185 71.68C174.165 70.6533 174.655 69.3467 174.655 67.76V66.08C174.655 64.4933 174.165 63.1867 173.185 62.16C172.251 61.1333 170.735 60.62 168.635 60.62C166.581 60.62 165.088 61.1333 164.155 62.16C163.221 63.1867 162.755 64.4933 162.755 66.08V67.76C162.755 69.3467 163.221 70.6533 164.155 71.68C165.088 72.7067 166.581 73.22 168.635 73.22ZM224.117 91C221.971 91 220.244 90.4633 218.937 89.39C217.631 88.27 216.861 86.6833 216.627 84.63H216.277C215.624 87.01 214.317 88.8067 212.357 90.02C210.444 91.2333 208.087 91.84 205.287 91.84C201.787 91.84 198.964 90.9067 196.817 89.04C194.717 87.1267 193.667 84.4667 193.667 81.06C193.667 77.28 195.044 74.48 197.797 72.66C200.551 70.84 204.587 69.93 209.907 69.93H215.717V68.11C215.717 65.9633 215.204 64.3533 214.177 63.28C213.197 62.16 211.517 61.6 209.137 61.6C206.944 61.6 205.171 62.02 203.817 62.86C202.464 63.7 201.297 64.7967 200.317 66.15L194.647 61.11C195.861 59.0567 197.751 57.3767 200.317 56.07C202.931 54.7167 206.267 54.04 210.327 54.04C215.274 54.04 219.124 55.1833 221.877 57.47C224.677 59.71 226.077 63.1167 226.077 67.69V83.51H230.067V91H224.117ZM209.207 85.05C211.027 85.05 212.567 84.6067 213.827 83.72C215.087 82.8333 215.717 81.55 215.717 79.87V75.53H210.187C205.941 75.53 203.817 76.9533 203.817 79.8V81.2C203.817 82.46 204.307 83.4167 205.287 84.07C206.267 84.7233 207.574 85.05 209.207 85.05ZM236.55 91V54.88H246.91V61.46H247.33C247.75 60.4333 248.263 59.4767 248.87 58.59C249.477 57.7033 250.2 56.9333 251.04 56.28C251.927 55.58 252.93 55.0433 254.05 54.67C255.217 54.25 256.523 54.04 257.97 54.04C259.697 54.04 261.283 54.3433 262.73 54.95C264.177 55.51 265.413 56.3733 266.44 57.54C267.467 58.7067 268.26 60.13 268.82 61.81C269.427 63.49 269.73 65.4267 269.73 67.62V91H259.37V69.02C259.37 64.3533 257.34 62.02 253.28 62.02C252.487 62.02 251.693 62.1367 250.9 62.37C250.153 62.5567 249.477 62.8833 248.87 63.35C248.263 63.77 247.773 64.3067 247.4 64.96C247.073 65.6133 246.91 66.3833 246.91 67.27V91H236.55ZM278.733 82.95H289.793V47.25H278.733V39.2H300.153V82.95H311.213V91H278.733V82.95ZM350.035 91C347.889 91 346.162 90.4633 344.855 89.39C343.549 88.27 342.779 86.6833 342.545 84.63H342.195C341.542 87.01 340.235 88.8067 338.275 90.02C336.362 91.2333 334.005 91.84 331.205 91.84C327.705 91.84 324.882 90.9067 322.735 89.04C320.635 87.1267 319.585 84.4667 319.585 81.06C319.585 77.28 320.962 74.48 323.715 72.66C326.469 70.84 330.505 69.93 335.825 69.93H341.635V68.11C341.635 65.9633 341.122 64.3533 340.095 63.28C339.115 62.16 337.435 61.6 335.055 61.6C332.862 61.6 331.089 62.02 329.735 62.86C328.382 63.7 327.215 64.7967 326.235 66.15L320.565 61.11C321.779 59.0567 323.669 57.3767 326.235 56.07C328.849 54.7167 332.185 54.04 336.245 54.04C341.192 54.04 345.042 55.1833 347.795 57.47C350.595 59.71 351.995 63.1167 351.995 67.69V83.51H355.985V91H350.035ZM335.125 85.05C336.945 85.05 338.485 84.6067 339.745 83.72C341.005 82.8333 341.635 81.55 341.635 79.87V75.53H336.105C331.859 75.53 329.735 76.9533 329.735 79.8V81.2C329.735 82.46 330.225 83.4167 331.205 84.07C332.185 84.7233 333.492 85.05 335.125 85.05ZM362.048 39.2H372.408V61.46H372.898C373.785 59.3133 375.068 57.54 376.748 56.14C378.428 54.74 380.715 54.04 383.608 54.04C385.615 54.04 387.435 54.4133 389.068 55.16C390.748 55.9067 392.171 57.05 393.338 58.59C394.551 60.13 395.485 62.09 396.138 64.47C396.838 66.85 397.188 69.6733 397.188 72.94C397.188 76.2067 396.838 79.03 396.138 81.41C395.485 83.79 394.551 85.75 393.338 87.29C392.171 88.83 390.748 89.9733 389.068 90.72C387.435 91.4667 385.615 91.84 383.608 91.84C380.715 91.84 378.428 91.1633 376.748 89.81C375.068 88.41 373.785 86.6133 372.898 84.42H372.408V91H362.048V39.2ZM379.128 83.79C381.461 83.79 383.258 83.09 384.518 81.69C385.778 80.2433 386.408 78.26 386.408 75.74V70.14C386.408 67.62 385.778 65.66 384.518 64.26C383.258 62.8133 381.461 62.09 379.128 62.09C377.308 62.09 375.721 62.5333 374.368 63.42C373.061 64.3067 372.408 65.7067 372.408 67.62V78.26C372.408 80.1733 373.061 81.5733 374.368 82.46C375.721 83.3467 377.308 83.79 379.128 83.79ZM420.471 91.84C416.457 91.84 412.957 91.2333 409.971 90.02C407.031 88.8067 404.814 87.15 403.321 85.05L409.131 79.66C410.531 81.2 412.164 82.4133 414.031 83.3C415.944 84.14 418.114 84.56 420.541 84.56C422.594 84.56 424.204 84.2567 425.371 83.65C426.537 82.9967 427.121 82.0167 427.121 80.71C427.121 79.6833 426.724 78.9833 425.931 78.61C425.137 78.19 424.041 77.8633 422.641 77.63L416.831 76.72C415.197 76.4867 413.681 76.1367 412.281 75.67C410.881 75.1567 409.667 74.48 408.641 73.64C407.614 72.8 406.797 71.7733 406.191 70.56C405.584 69.3467 405.281 67.8767 405.281 66.15C405.281 62.37 406.727 59.4067 409.621 57.26C412.514 55.1133 416.574 54.04 421.801 54.04C425.347 54.04 428.357 54.53 430.831 55.51C433.351 56.4433 435.357 57.7967 436.851 59.57L431.671 65.45C430.597 64.2833 429.221 63.3033 427.541 62.51C425.861 61.7167 423.831 61.32 421.451 61.32C417.437 61.32 415.431 62.5333 415.431 64.96C415.431 66.0333 415.827 66.78 416.621 67.2C417.414 67.5733 418.511 67.8767 419.911 68.11L425.651 69.02C427.284 69.2533 428.801 69.6267 430.201 70.14C431.601 70.6067 432.814 71.26 433.841 72.1C434.914 72.94 435.754 73.9667 436.361 75.18C436.967 76.3933 437.271 77.8633 437.271 79.59C437.271 83.37 435.801 86.3567 432.861 88.55C429.967 90.7433 425.837 91.84 420.471 91.84Z" fill="#F0D9F3"/>
<path d="M450 128V116H462V128H450Z" fill="#F0D9F3" stroke="#8F54BE" stroke-width="4"/>
<path d="M2 128V116H14V128H2Z" fill="#F0D9F3" stroke="#8F54BE" stroke-width="4"/>
<path d="M450 2H462V14H450V2Z" fill="#F0D9F3" stroke="#8F54BE" stroke-width="4"/>
<path d="M2 14V2H14V14H2Z" fill="#F0D9F3" stroke="#8F54BE" stroke-width="4"/>
</svg>
