<svg width="206" height="218" viewBox="0 0 206 218" fill="none" xmlns="http://www.w3.org/2000/svg">
<g filter="url(#filter0_d_909_329)">
<path fill-rule="evenodd" clip-rule="evenodd" d="M67.1501 164.696L44.277 58.2634C42.1317 48.281 52.874 40.497 61.7224 45.6226L156.127 100.308C164.987 105.44 163.523 118.63 153.751 121.702L111.786 134.897L88.3954 168.888C82.5386 177.4 69.3197 174.791 67.1501 164.696Z" fill="#8F54BE"/>
<path d="M110.286 130.127L108.643 130.643L107.667 132.062L84.2764 166.054C80.8987 170.962 73.2844 169.442 72.0385 163.645L49.1654 57.2128C47.9374 51.4987 54.0977 46.9841 59.2162 49.9491L153.621 104.635C158.713 107.584 157.881 115.163 152.252 116.933L153.751 121.702L152.252 116.933L110.286 130.127Z" stroke="#F0D9F3" stroke-width="10"/>
</g>
<defs>
<filter id="filter0_d_909_329" x="0.922504" y="0.922504" width="204.155" height="216.155" filterUnits="userSpaceOnUse" color-interpolation-filters="sRGB">
<feFlood flood-opacity="0" result="BackgroundImageFix"/>
<feColorMatrix in="SourceAlpha" type="matrix" values="0 0 0 0 0 0 0 0 0 0 0 0 0 0 0 0 0 0 127 0" result="hardAlpha"/>
<feOffset/>
<feGaussianBlur stdDeviation="21.5387"/>
<feComposite in2="hardAlpha" operator="out"/>
<feColorMatrix type="matrix" values="0 0 0 0 0 0 0 0 0 0 0 0 0 0 0 0 0 0 0.25 0"/>
<feBlend mode="normal" in2="BackgroundImageFix" result="effect1_dropShadow_909_329"/>
<feBlend mode="normal" in="SourceGraphic" in2="effect1_dropShadow_909_329" result="shape"/>
</filter>
</defs>
</svg>
