<?xml version="1.0"?><svg xmlns="http://www.w3.org/2000/svg" width="256" height="256" fill="none" version="1.2" baseProfile="tiny-ps"><title>morganlabs</title><defs/><g><g class="fills"><rect width="256" height="256" class="frame-background" transform="matrix(1.000000, 0.000000, 0.000000, 1.000000, 0.000000, 0.000000)" ry="0" rx="0" fill-opacity="1" fill="rgb(22, 21, 16)"/></g><g class="frame-children"><g class="fills"><rect rx="0" ry="0" x="116.5" y="96" width="23" height="64" transform="matrix(1.000000, 0.000000, 0.000000, 1.000000, 0.000000, 0.000000)" class="frame-background"/></g><g class="frame-children"><g><path d="M128.000,160.000C124.634,160.000,121.876,158.878,119.726,156.635C117.575,154.392,116.500,151.635,116.500,148.364C116.500,144.999,117.575,142.242,119.726,140.092C121.876,137.849,124.634,136.727,128.000,136.727C131.366,136.727,134.124,137.849,136.274,140.092C138.425,142.242,139.500,144.999,139.500,148.364C139.500,151.635,138.425,154.392,136.274,156.635C134.124,158.878,131.366,160.000,128.000,160.000ZZZ" class="fills" fill-opacity="1" fill="rgb(237, 229, 206)"/></g><g><defs/><path d="M128.000,119.273C124.634,119.273,121.876,118.151,119.726,115.908C117.575,113.665,116.500,110.908,116.500,107.636C116.500,104.272,117.575,101.514,119.726,99.365C121.876,97.122,124.634,96.000,128.000,96.000C131.366,96.000,134.124,97.122,136.274,99.365C138.425,101.514,139.500,104.272,139.500,107.636C139.500,110.908,138.425,113.665,136.274,115.908C134.124,118.151,131.366,119.273,128.000,119.273ZZZ" class="fills" fill-opacity="1" fill="rgb(255, 203, 36)"/></g></g></g></g></svg>
